<?xml version="1.0" standalone="no"?>
<!DOCTYPE svg PUBLIC "-//W3C//DTD SVG 20010904//EN"
 "http://www.w3.org/TR/2001/REC-SVG-20010904/DTD/svg10.dtd">
<svg version="1.0" xmlns="http://www.w3.org/2000/svg"
 width="162.000000pt" height="50.000000pt" viewBox="0 0 162.000000 50.000000"
 preserveAspectRatio="xMidYMid meet">

<g transform="translate(0.000000,50.000000) scale(0.100000,-0.100000)"
fill="#000000" stroke="none">
<path d="M0 250 l0 -250 250 0 250 0 0 250 0 250 -250 0 -250 0 0 -250z m376
145 c24 -23 44 -48 44 -56 0 -8 -9 0 -19 17 -30 49 -77 77 -140 83 -42 3 -50
6 -31 11 43 11 100 -11 146 -55z m-53 -22 c8 -10 17 -27 19 -38 2 -16 -2 -19
-19 -17 -26 4 -28 -5 -8 -32 8 -11 15 -25 15 -30 0 -8 -3 -7 -8 0 -4 6 -17 16
-29 23 -19 10 -22 9 -17 -4 4 -8 10 -15 15 -15 5 0 9 -4 9 -9 0 -14 -54 -18
-94 -7 l-36 11 30 32 c19 20 25 33 17 36 -17 6 48 67 71 67 11 0 26 -8 35 -17z
m-123 -23 c0 -5 -4 -10 -10 -10 -5 0 -10 5 -10 10 0 6 5 10 10 10 6 0 10 -4
10 -10z m-36 -26 c3 -8 2 -14 -2 -14 -9 1 -42 26 -42 33 0 11 39 -6 44 -19z
m-32 -40 c-5 -9 -8 -24 -6 -33 12 -62 15 -69 44 -81 36 -15 70 -55 70 -82 0
-16 -3 -17 -21 -7 -41 22 -109 102 -115 136 -6 34 10 83 28 83 5 0 5 -7 0 -16z
m268 -45 c0 -15 -5 -40 -12 -56 -6 -15 -10 -32 -9 -36 0 -4 -13 -15 -30 -25
-17 -9 -40 -25 -51 -35 -21 -17 -38 -22 -38 -11 0 23 36 74 60 84 16 7 35 19
42 27 15 19 18 71 5 98 -10 20 -10 20 12 1 12 -11 21 -31 21 -47z m37 9 c-3
-8 -6 -5 -6 6 -1 11 2 17 5 13 3 -3 4 -12 1 -19z m-177 -48 c0 -11 6 -20 13
-20 7 0 5 -5 -5 -10 -9 -6 -23 -8 -31 -4 -12 4 -12 10 -3 30 13 29 26 31 26 4z"/>
<path d="M235 300 c-3 -5 1 -10 10 -10 9 0 13 5 10 10 -3 6 -8 10 -10 10 -2 0
-7 -4 -10 -10z"/>
<path d="M200 270 c-13 -8 -12 -10 3 -10 9 0 17 5 17 10 0 12 -1 12 -20 0z"/>
<path d="M561 353 c-5 -10 -15 -34 -24 -53 l-14 -36 52 0 53 0 -19 49 c-10 26
-19 50 -19 52 0 12 -20 3 -29 -12z m29 -55 c0 -5 -4 -8 -10 -8 -5 0 -10 10
-10 23 0 18 2 19 10 7 5 -8 10 -18 10 -22z"/>
<path d="M910 355 c0 -9 -9 -15 -25 -15 -18 0 -29 -8 -37 -25 -16 -35 14 -66
55 -58 25 5 27 8 27 59 0 30 -4 54 -10 54 -5 0 -10 -7 -10 -15z m-3 -51 c6
-16 -15 -37 -29 -28 -4 3 -8 14 -8 25 0 23 28 26 37 3z"/>
<path d="M1200 360 c0 -5 5 -10 10 -10 6 0 10 5 10 10 0 6 -4 10 -10 10 -5 0
-10 -4 -10 -10z"/>
<path d="M1290 315 c0 -30 5 -55 10 -55 6 0 10 9 10 20 0 13 7 20 20 20 13 0
20 -7 20 -20 0 -11 7 -20 15 -20 12 0 15 13 15 55 0 42 -3 55 -15 55 -8 0 -15
-9 -15 -19 0 -19 -23 -35 -34 -24 -3 4 -6 15 -6 25 0 10 -4 18 -10 18 -5 0
-10 -25 -10 -55z"/>
<path d="M1490 316 c0 -51 2 -54 27 -59 43 -8 65 9 61 46 -2 27 -8 33 -30 35
-16 2 -28 9 -28 18 0 8 -7 14 -15 14 -11 0 -15 -13 -15 -54z m67 -12 c6 -16
-15 -37 -29 -28 -4 3 -8 14 -8 25 0 23 28 26 37 3z"/>
<path d="M651 326 c-16 -19 -7 -62 15 -70 17 -7 54 10 54 24 0 13 -13 13 -26
0 -8 -8 -15 -6 -23 4 -18 22 -3 39 26 31 18 -4 24 -2 21 7 -7 19 -53 21 -67 4z"/>
<path d="M746 324 c-18 -47 7 -76 57 -67 24 5 27 10 27 44 0 39 0 39 -39 39
-26 0 -41 -5 -45 -16z m57 -18 c8 -19 -15 -37 -32 -26 -17 10 -7 40 13 40 7 0
16 -6 19 -14z"/>
<path d="M962 328 c-34 -34 6 -90 48 -68 28 15 25 23 -4 16 -14 -3 -28 -2 -31
4 -4 6 6 10 23 10 36 0 44 8 31 31 -11 21 -49 25 -67 7z m45 -14 c-3 -3 -12
-4 -19 -1 -8 3 -5 6 6 6 11 1 17 -2 13 -5z"/>
<path d="M1050 300 c0 -45 17 -55 22 -13 4 39 28 42 28 4 0 -21 5 -31 15 -31
10 0 15 10 15 31 0 38 24 35 28 -4 5 -42 24 -32 20 11 l-3 37 -62 2 -63 3 0
-40z"/>
<path d="M1200 300 c0 -22 5 -40 10 -40 6 0 10 18 10 40 0 22 -4 40 -10 40 -5
0 -10 -18 -10 -40z"/>
<path d="M1400 301 c0 -43 11 -52 54 -44 24 5 27 9 24 41 -4 46 -26 54 -30 10
-4 -42 -22 -43 -26 0 -5 45 -22 40 -22 -7z"/>
<path d="M612 153 l3 -38 120 -1 120 0 -117 3 -118 4 0 29 0 30 436 0 436 0
-4 -35 c-2 -20 0 -31 5 -26 5 5 7 21 5 37 l-3 29 -443 3 -443 2 3 -37z"/>
<path d="M630 150 c0 -20 5 -21 130 -19 120 2 130 4 130 21 0 17 -8 19 -92 17
-56 -1 -96 -6 -100 -13 -6 -8 -8 -7 -8 2 0 6 -6 12 -14 12 -8 0 -17 -6 -19
-12 -4 -10 -6 -10 -6 0 -2 21 -21 13 -21 -8z"/>
<path d="M900 150 c0 -17 14 -18 163 -18 111 0 164 4 169 11 6 9 8 9 8 0 0
-20 17 -15 23 7 5 20 1 20 -179 19 -169 -2 -184 -3 -184 -19z"/>
<path d="M1280 150 c0 -22 25 -28 33 -7 4 10 6 10 6 0 1 -20 49 -16 54 5 4 16
5 16 6 -1 1 -14 10 -17 51 -16 41 2 50 5 50 21 0 16 -10 18 -100 18 -93 0
-100 -1 -100 -20z"/>
<path d="M868 113 c7 -3 16 -2 19 1 4 3 -2 6 -13 5 -11 0 -14 -3 -6 -6z"/>
<path d="M938 113 c7 -3 16 -2 19 1 4 3 -2 6 -13 5 -11 0 -14 -3 -6 -6z"/>
<path d="M1013 113 c26 -2 67 -2 90 0 23 2 2 3 -48 3 -49 0 -68 -1 -42 -3z"/>
<path d="M1168 113 c12 -2 32 -2 45 0 12 2 2 4 -23 4 -25 0 -35 -2 -22 -4z"/>
<path d="M1288 113 c7 -3 16 -2 19 1 4 3 -2 6 -13 5 -11 0 -14 -3 -6 -6z"/>
<path d="M1348 113 c7 -3 16 -2 19 1 4 3 -2 6 -13 5 -11 0 -14 -3 -6 -6z"/>
<path d="M1398 113 c12 -2 30 -2 40 0 9 3 -1 5 -23 4 -22 0 -30 -2 -17 -4z"/>
</g>
</svg>
